<svg width="635" height="676" viewBox="0 0 635 676" fill="none" xmlns="http://www.w3.org/2000/svg">
<mask id="path-1-inside-1_850_245" fill="white">
<path d="M84.2049 205.925C92.0157 204.139 98.094 198.006 99.8084 190.179L104.952 166.698C107.272 156.107 112.484 146.368 120.01 138.564L138.045 119.861C145.328 112.308 153.382 105.537 162.075 99.6608L164.46 98.0482C177.759 89.0575 192.214 81.9087 207.431 76.7967L248.5 63L257.632 60.9855C273.837 57.4109 288.596 49.0554 300 37V37L311.306 27.6187C319.409 20.8951 328.255 15.1223 337.673 10.4135L346.593 5.95355C347.197 5.65166 347.824 5.39832 348.468 5.19592L351.968 4.09586C358.427 2.06577 365 6.88988 365 13.6608V13.6608C365 16.1327 364.087 18.5176 362.436 20.3573L350.934 33.1734C348.653 35.7156 346.679 38.5182 345.055 41.5231L342.094 47.0014C339.128 52.4891 338.201 58.8501 339.479 64.9558L340.309 68.9197C341.381 74.0418 344.664 78.4272 349.277 80.8984V80.8984C353.568 83.1973 358.617 83.6277 363.236 82.0881L372.099 79.1337C376.335 77.7215 380.301 75.5992 383.826 72.8575L396.5 63L416 46L422.18 41.9697C433.35 34.6848 445.382 28.8166 458 24.5V24.5L472.456 19.1741C475.345 18.1096 478.553 18.336 481.264 19.7958V19.7958C486.197 22.4522 488.26 28.4536 486.004 33.5821L485.337 35.0972C484.783 36.3571 484.025 37.5171 483.093 38.5307L467.5 55.5L457.474 63.9002C451.901 68.5693 447.491 74.4709 444.592 81.1383L442.509 85.9283C440.22 91.1941 439.522 97.0148 440.501 102.673V102.673C442.348 113.343 449.909 122.136 460.183 125.561L462.376 126.292C465.77 127.423 469.324 128 472.901 128H490H520V128C536.604 128 553.145 125.964 569.254 121.937L577 120L610.826 113.718C611.607 113.573 612.4 113.5 613.194 113.5H621.617C627.492 113.5 631.281 119.724 628.581 124.943V124.943C627.573 126.891 625.796 128.328 623.68 128.906L605 134L589.166 137.11C581.073 138.7 573.146 141.042 565.489 144.105L560.791 145.983C553.295 148.982 546.219 152.938 539.738 157.752L533.987 162.024C532.666 163.005 531.449 164.12 530.356 165.35L529.394 166.431C523.68 172.86 522.28 182.048 525.82 189.887V189.887C526.603 191.622 527.61 193.246 528.816 194.719L531.929 198.524C537.57 205.419 544.695 210.951 552.773 214.708L553.797 215.185C559.239 217.716 565.009 219.47 570.939 220.397L594 224L621.248 228.541C624.567 229.095 627 231.966 627 235.331V235.331C627 237.894 625.576 240.244 623.305 241.431L605 251L562 267L525.636 276.091C521.893 277.027 518.049 277.5 514.19 277.5H508.446C501.053 277.5 493.897 274.893 488.236 270.138V270.138C485.76 268.058 482.978 266.373 479.989 265.142L474.749 262.985C469.932 261.002 464.903 259.579 459.761 258.745L449 257L426.5 256L408 257L392.5 258L377 260.5L359 264.5L342.5 269.5L316 279.5L293.799 288.288C292.609 288.759 291.513 289.438 290.562 290.295L289.134 291.579C287.776 292.802 287 294.57 287 296.398V296.398C287 299.578 284.651 302.32 281.5 302.75L278.979 303.094C277.272 303.327 276 304.784 276 306.506V306.506C276 308.772 278.151 310.421 280.339 309.832L289 307.5L310.5 300.5L320.695 298.284C321.553 298.097 322.443 298.111 323.295 298.324L323.832 298.458C325.2 298.8 326.335 299.753 326.908 301.042V301.042C327.582 302.56 327.383 304.323 326.386 305.652L326.101 306.032C325.387 306.984 324.378 307.673 323.232 307.991L316 310L294 316.5L282.705 319.512C280.259 320.164 277.967 321.295 275.961 322.838V322.838C273.683 324.59 271.04 325.807 268.227 326.4L266.825 326.695C264.29 327.228 261.851 328.146 259.593 329.416L258.484 330.04C256.17 331.342 254.017 332.913 252.071 334.72L250.69 336.002C248.899 337.665 247.234 339.458 245.707 341.366L244.67 342.663C242.896 344.88 241.386 347.296 240.171 349.862V349.862C238.403 353.594 237.279 357.598 236.847 361.704L236.5 365V368.331C236.5 373.098 236.99 377.852 237.962 382.518V382.518C238.653 385.835 239.585 389.097 240.752 392.278L244.5 402.5L250.5 418.5L254.06 430.663C255.683 436.208 256.763 441.897 257.286 447.651L258.093 456.518C258.363 459.489 258.188 462.484 257.573 465.404V465.404C256.863 468.776 255.577 472 253.771 474.935L252.5 477L247.5 488L246.592 490.543C243.869 498.166 241.831 506.016 240.5 514V514L239.5 526.5V538V538C239.5 544.56 237.838 551.012 234.669 556.756L231.5 562.5L223.5 579.5L219.5 590L215.115 597.972C214.38 599.31 213.375 600.48 212.165 601.411L209.236 603.665C208.151 604.5 206.721 604.74 205.422 604.307V604.307C204.816 604.105 204.265 603.765 203.813 603.313L201.176 600.676C200.062 599.562 199.085 598.321 198.264 596.978L194 590L184.5 578L168.5 555.5L159 541.5L151 528.5L144 516L136 499.5V499.5C131.958 488.928 133.659 477.018 140.5 468V468L154.5 451L164 439L169.611 430.799C170.2 429.939 170.646 428.989 170.932 427.987L171.812 424.908C172.237 423.422 171.822 421.822 170.729 420.729V420.729C169.405 419.405 167.371 419.102 165.718 419.984L162.685 421.601C161.574 422.194 160.602 423.015 159.832 424.011L152.5 433.5L144 445L133 461L123 473.5V473.5C115.347 483.15 106.906 492.149 97.7661 500.405L96 502L91.3246 506.091C89.2879 507.873 86.4176 508.348 83.9151 507.318V507.318C81.2436 506.218 79.5 503.614 79.5 500.725V486.879C79.5 485.296 79.6353 483.716 79.9043 482.155L84.5 455.5L89.5 432L91.2725 418.706C91.4231 417.577 91.3859 416.43 91.1624 415.312L90.6998 412.999C90.0022 409.511 86.9395 407 83.3823 407V407C82.1816 407 80.9986 407.29 79.9338 407.845L76.8842 409.434C73.0506 411.431 69.9081 414.538 67.8667 418.349L63.5 426.5L53 445L40 465.5L30.7006 479.247C29.3245 481.281 27.0285 482.5 24.5725 482.5V482.5C21.7702 482.5 19.2084 480.917 17.9551 478.41L15.091 472.682C14.3671 471.234 13.8445 469.694 13.5377 468.105L8.5 442L3 412.5L0 384.5V346L1.21495 328.788C2.39341 312.093 6.85263 295.795 14.3374 280.825V280.825C18.1032 273.294 22.607 266.154 27.7827 259.512L42.3511 240.816C47.4341 234.293 53.2383 228.365 59.6532 223.147L75.7563 210.046C78.219 208.042 81.1098 206.632 84.2049 205.925V205.925Z"/>
</mask>
<path d="M84.2049 205.925C92.0157 204.139 98.094 198.006 99.8084 190.179L104.952 166.698C107.272 156.107 112.484 146.368 120.01 138.564L138.045 119.861C145.328 112.308 153.382 105.537 162.075 99.6608L164.46 98.0482C177.759 89.0575 192.214 81.9087 207.431 76.7967L248.5 63L257.632 60.9855C273.837 57.4109 288.596 49.0554 300 37V37L311.306 27.6187C319.409 20.8951 328.255 15.1223 337.673 10.4135L346.593 5.95355C347.197 5.65166 347.824 5.39832 348.468 5.19592L351.968 4.09586C358.427 2.06577 365 6.88988 365 13.6608V13.6608C365 16.1327 364.087 18.5176 362.436 20.3573L350.934 33.1734C348.653 35.7156 346.679 38.5182 345.055 41.5231L342.094 47.0014C339.128 52.4891 338.201 58.8501 339.479 64.9558L340.309 68.9197C341.381 74.0418 344.664 78.4272 349.277 80.8984V80.8984C353.568 83.1973 358.617 83.6277 363.236 82.0881L372.099 79.1337C376.335 77.7215 380.301 75.5992 383.826 72.8575L396.5 63L416 46L422.18 41.9697C433.35 34.6848 445.382 28.8166 458 24.5V24.5L472.456 19.1741C475.345 18.1096 478.553 18.336 481.264 19.7958V19.7958C486.197 22.4522 488.26 28.4536 486.004 33.5821L485.337 35.0972C484.783 36.3571 484.025 37.5171 483.093 38.5307L467.5 55.5L457.474 63.9002C451.901 68.5693 447.491 74.4709 444.592 81.1383L442.509 85.9283C440.22 91.1941 439.522 97.0148 440.501 102.673V102.673C442.348 113.343 449.909 122.136 460.183 125.561L462.376 126.292C465.77 127.423 469.324 128 472.901 128H490H520V128C536.604 128 553.145 125.964 569.254 121.937L577 120L610.826 113.718C611.607 113.573 612.4 113.5 613.194 113.5H621.617C627.492 113.5 631.281 119.724 628.581 124.943V124.943C627.573 126.891 625.796 128.328 623.68 128.906L605 134L589.166 137.11C581.073 138.7 573.146 141.042 565.489 144.105L560.791 145.983C553.295 148.982 546.219 152.938 539.738 157.752L533.987 162.024C532.666 163.005 531.449 164.12 530.356 165.35L529.394 166.431C523.68 172.86 522.28 182.048 525.82 189.887V189.887C526.603 191.622 527.61 193.246 528.816 194.719L531.929 198.524C537.57 205.419 544.695 210.951 552.773 214.708L553.797 215.185C559.239 217.716 565.009 219.47 570.939 220.397L594 224L621.248 228.541C624.567 229.095 627 231.966 627 235.331V235.331C627 237.894 625.576 240.244 623.305 241.431L605 251L562 267L525.636 276.091C521.893 277.027 518.049 277.5 514.19 277.5H508.446C501.053 277.5 493.897 274.893 488.236 270.138V270.138C485.76 268.058 482.978 266.373 479.989 265.142L474.749 262.985C469.932 261.002 464.903 259.579 459.761 258.745L449 257L426.5 256L408 257L392.5 258L377 260.5L359 264.5L342.5 269.5L316 279.5L293.799 288.288C292.609 288.759 291.513 289.438 290.562 290.295L289.134 291.579C287.776 292.802 287 294.57 287 296.398V296.398C287 299.578 284.651 302.32 281.5 302.75L278.979 303.094C277.272 303.327 276 304.784 276 306.506V306.506C276 308.772 278.151 310.421 280.339 309.832L289 307.5L310.5 300.5L320.695 298.284C321.553 298.097 322.443 298.111 323.295 298.324L323.832 298.458C325.2 298.8 326.335 299.753 326.908 301.042V301.042C327.582 302.56 327.383 304.323 326.386 305.652L326.101 306.032C325.387 306.984 324.378 307.673 323.232 307.991L316 310L294 316.5L282.705 319.512C280.259 320.164 277.967 321.295 275.961 322.838V322.838C273.683 324.59 271.04 325.807 268.227 326.4L266.825 326.695C264.29 327.228 261.851 328.146 259.593 329.416L258.484 330.04C256.17 331.342 254.017 332.913 252.071 334.72L250.69 336.002C248.899 337.665 247.234 339.458 245.707 341.366L244.67 342.663C242.896 344.88 241.386 347.296 240.171 349.862V349.862C238.403 353.594 237.279 357.598 236.847 361.704L236.5 365V368.331C236.5 373.098 236.99 377.852 237.962 382.518V382.518C238.653 385.835 239.585 389.097 240.752 392.278L244.5 402.5L250.5 418.5L254.06 430.663C255.683 436.208 256.763 441.897 257.286 447.651L258.093 456.518C258.363 459.489 258.188 462.484 257.573 465.404V465.404C256.863 468.776 255.577 472 253.771 474.935L252.5 477L247.5 488L246.592 490.543C243.869 498.166 241.831 506.016 240.5 514V514L239.5 526.5V538V538C239.5 544.56 237.838 551.012 234.669 556.756L231.5 562.5L223.5 579.5L219.5 590L215.115 597.972C214.38 599.31 213.375 600.48 212.165 601.411L209.236 603.665C208.151 604.5 206.721 604.74 205.422 604.307V604.307C204.816 604.105 204.265 603.765 203.813 603.313L201.176 600.676C200.062 599.562 199.085 598.321 198.264 596.978L194 590L184.5 578L168.5 555.5L159 541.5L151 528.5L144 516L136 499.5V499.5C131.958 488.928 133.659 477.018 140.5 468V468L154.5 451L164 439L169.611 430.799C170.2 429.939 170.646 428.989 170.932 427.987L171.812 424.908C172.237 423.422 171.822 421.822 170.729 420.729V420.729C169.405 419.405 167.371 419.102 165.718 419.984L162.685 421.601C161.574 422.194 160.602 423.015 159.832 424.011L152.5 433.5L144 445L133 461L123 473.5V473.5C115.347 483.15 106.906 492.149 97.7661 500.405L96 502L91.3246 506.091C89.2879 507.873 86.4176 508.348 83.9151 507.318V507.318C81.2436 506.218 79.5 503.614 79.5 500.725V486.879C79.5 485.296 79.6353 483.716 79.9043 482.155L84.5 455.5L89.5 432L91.2725 418.706C91.4231 417.577 91.3859 416.43 91.1624 415.312L90.6998 412.999C90.0022 409.511 86.9395 407 83.3823 407V407C82.1816 407 80.9986 407.29 79.9338 407.845L76.8842 409.434C73.0506 411.431 69.9081 414.538 67.8667 418.349L63.5 426.5L53 445L40 465.5L30.7006 479.247C29.3245 481.281 27.0285 482.5 24.5725 482.5V482.5C21.7702 482.5 19.2084 480.917 17.9551 478.41L15.091 472.682C14.3671 471.234 13.8445 469.694 13.5377 468.105L8.5 442L3 412.5L0 384.5V346L1.21495 328.788C2.39341 312.093 6.85263 295.795 14.3374 280.825V280.825C18.1032 273.294 22.607 266.154 27.7827 259.512L42.3511 240.816C47.4341 234.293 53.2383 228.365 59.6532 223.147L75.7563 210.046C78.219 208.042 81.1098 206.632 84.2049 205.925V205.925Z" fill="#C99A00" stroke="#3E6FF4" stroke-width="6" mask="url(#path-1-inside-1_850_245)"/>
<path d="M307.283 290.717C307.755 290.245 308.328 289.887 308.959 289.671L343 278L384 268L414.518 264.691C421.817 263.899 429.181 263.914 436.477 264.735L463.222 267.744C464.737 267.914 466.234 268.226 467.691 268.674L481.963 273.066C483.768 273.621 485 275.289 485 277.177V277.177C485 277.392 485.016 277.607 485.048 277.819L489 304L494.984 333.921C495.553 336.764 493.788 339.553 490.975 340.256V340.256C490.33 340.417 489.721 340.695 489.177 341.076L485 344L483.2 345.637C481.215 347.441 478.109 347.145 476.5 345V345V345C474.836 343.004 473.008 341.15 471.035 339.459L470.5 339L468.844 337.344C467.284 335.784 465.591 334.364 463.785 333.099V333.099C462.264 332.035 460.666 331.083 459.006 330.253L455.5 328.5L449.5 326L444.5 324.5L440 323.5L435 322.5L430.5 322H425H421L419.622 322.138C417.212 322.379 414.829 322.835 412.5 323.5V323.5L408.5 325L405.5 326.5L405.391 326.563C403.135 327.852 400.996 329.337 399 331V331L394.583 334.534C394.195 334.844 393.83 335.182 393.491 335.546L391.369 337.819C388.904 340.46 384.821 340.757 382 338.5V338.5L378.5 336L375.756 333.805C374.256 332.605 372.634 331.567 370.916 330.708V330.708C369.309 329.905 367.627 329.262 365.894 328.789L363 328L358 326.5V326.5C355.343 325.836 352.615 325.5 349.877 325.5H337L327.5 326.5L319.5 328.5L312 330.5L306 332.5L300.644 334.732C300.217 334.91 299.819 335.151 299.464 335.447V335.447C297.982 336.681 295.89 336.866 294.215 335.909L293.5 335.5L287.5 332.5L282.5 330.5L282.101 330.301C281.196 329.848 280.789 328.777 281.165 327.838V327.838C281.377 327.306 281.813 326.896 282.356 326.715L287.5 325L294 323L302.5 320.5L305.139 319.879C309.041 318.961 313.005 318.333 317 318V318L321.5 317L322.346 316.746C325.1 315.92 327.716 314.689 330.108 313.095L331.819 311.954C332.272 311.652 332.694 311.306 333.079 310.921V310.921C334.629 309.371 335.5 307.268 335.5 305.076V303.5V299.651C335.5 298.579 335.152 297.536 334.509 296.679V296.679C334.172 296.23 333.761 295.841 333.294 295.529L332.43 294.954C331.483 294.322 330.442 293.841 329.347 293.528L327.5 293L325.701 292.486C324.572 292.164 323.405 292 322.231 292H318.061C317.382 292 316.73 292.27 316.25 292.75V292.75C315.77 293.23 315.118 293.5 314.439 293.5H307.061C306.475 293.5 306 293.025 306 292.439V292.439C306 292.158 306.112 291.888 306.311 291.689L307.283 290.717Z" fill="#3E6FF4"/>
<path d="M256.939 339.781C259.3 338.6 261.821 337.767 264.421 337.308L266.86 336.878C273.745 335.663 280.838 336.842 286.96 340.219L290.04 341.919C291.335 342.633 292.486 343.583 293.433 344.719L296.285 348.142C296.738 348.686 297.409 349 298.116 349V349C299.433 349 300.5 347.933 300.5 346.616V344.742C300.5 343.072 301.476 341.556 302.996 340.865L306 339.5L316 336.5L326 334L338.5 332.5H347H350.661C353.208 332.5 355.742 332.855 358.191 333.555V333.555C360.388 334.182 362.499 335.082 364.472 336.234L367.5 338L374 342L381.376 346.61C381.788 346.868 382.15 347.2 382.441 347.589V347.589C383.115 348.487 383.374 349.629 383.154 350.73L382.272 355.14C382.091 356.045 382 356.965 382 357.887V367V368.425C382 370.466 382.272 372.498 382.809 374.467V374.467C383.268 376.15 383.918 377.776 384.745 379.312L387 383.5L388.636 385.731C391.204 389.232 394.159 392.433 397.445 395.271V395.271C401.463 398.74 405.94 401.638 410.75 403.883L413.12 404.99C416.697 406.659 420.437 407.952 424.281 408.849L425.218 409.068C430.702 410.347 436.359 410.714 441.962 410.154V410.154C446.303 409.72 450.571 408.733 454.661 407.218L455.534 406.895C459.826 405.305 463.887 403.152 467.611 400.492L468.994 399.504C471.324 397.84 473.452 395.912 475.337 393.758L476.166 392.81C478.373 390.288 480.136 387.411 481.38 384.3V384.3C482.78 380.799 483.5 377.063 483.5 373.292V368.5V361.592C483.5 360.871 483.362 360.156 483.094 359.486V359.486C482.151 357.128 482.89 354.431 484.903 352.883L488 350.5L492.058 347.917C493 347.318 494.093 347 495.209 347V347C497.764 347 500.026 348.654 500.801 351.089L502.687 357.016C502.895 357.671 503.151 358.31 503.45 358.929L511 374.5L525 400.5L537.5 424.5L542.588 436.13C543.856 439.028 544.699 442.094 545.092 445.234L545.86 451.384C546.275 454.699 545.566 458.057 543.847 460.921V460.921C542.633 462.945 540.957 464.652 538.955 465.903L537.59 466.756C535.219 468.238 532.584 469.246 529.829 469.725L525.489 470.48C523.503 470.826 521.484 470.932 519.473 470.798L495.532 469.202C493.891 469.093 492.5 470.394 492.5 472.039V472.039C492.5 472.344 492.549 472.648 492.646 472.938L492.693 473.08C493.181 474.542 494.508 475.559 496.046 475.65L497.546 475.738C500.189 475.893 502.416 477.766 503.022 480.343L504 484.5L507.5 501L509 516.5L512 532.5L514 551V571.5L512.854 582.676C512.286 588.216 511.256 593.698 509.775 599.066L505.66 613.984C504.555 617.988 503.114 621.89 501.351 625.651V625.651C498.136 632.509 493.882 638.83 488.739 644.391L484.263 649.229C480.103 653.726 475.412 657.701 470.292 661.065V661.065C463.803 665.33 456.695 668.568 449.219 670.667L438.364 673.714C434.141 674.899 429.776 675.5 425.39 675.5V675.5C416.316 675.5 407.428 672.928 399.756 668.083L397.31 666.538C394.111 664.517 391.117 662.189 388.372 659.585L363.5 636L356.729 629.011C350.933 623.027 344.411 617.791 337.315 613.425L333.151 610.862C330.057 608.958 326.795 607.34 323.407 606.029L322.639 605.731C316.268 603.265 309.496 602 302.664 602H302.108C298.711 602 295.324 601.653 291.998 600.965L291.48 600.858C285.549 599.631 279.91 597.273 274.87 593.914V593.914C271.966 591.977 269.285 589.724 266.878 587.196L266.416 586.712C262.497 582.597 259.263 577.881 256.837 572.743L255.747 570.435C253.259 565.166 251.448 559.604 250.358 553.88L249.704 550.447C248.571 544.496 248 538.451 248 532.392V526.895C248 515.711 249.876 504.606 253.55 494.043L256 487L261.059 476.882C262.904 473.193 266.423 470.627 270.5 470V470L273.675 469.074C279.465 467.385 284.736 464.264 289 460V460L295.881 451.829C296.604 450.971 297 449.884 297 448.762V447.301C297 445.478 295.522 444 293.699 444V444C292.633 444 291.632 444.515 291.013 445.382L286.133 452.214C285.05 453.73 283.756 455.085 282.291 456.236L278.883 458.913C277.969 459.631 276.928 460.17 275.813 460.5V460.5C269.917 462.247 264 457.829 264 451.679V448V444.904C264 440.32 263.418 435.754 262.267 431.317L261.927 430.005C260.98 426.35 259.563 422.834 257.712 419.543V419.543C256.572 417.518 255.596 415.404 254.793 413.224L252.5 407L248 391L244.5 379L243.073 372.101C242.038 367.103 242.185 361.932 243.5 357V357L244.418 354.064C245.459 350.73 247.233 347.672 249.61 345.112V345.112C251.521 343.054 253.787 341.357 256.299 340.101L256.939 339.781Z" fill="#3E6FF4"/>
<path d="M477 368.5C477 388.382 457.077 404.5 432.5 404.5C407.923 404.5 388 388.382 388 368.5C388 348.618 404.423 328.5 429 328.5C453.577 328.5 477 348.618 477 368.5Z" fill="black"/>
</svg>
